<?xml version="1.0" encoding="utf-8"?>
<!-- Generator: Adobe Illustrator 27.5.0, SVG Export Plug-In . SVG Version: 6.00 Build 0)  -->
<svg version="1.1" xmlns="http://www.w3.org/2000/svg" xmlns:xlink="http://www.w3.org/1999/xlink" x="0px" y="0px"
	 viewBox="0 0 500 500" style="enable-background:new 0 0 500 500;" xml:space="preserve">
<g id="Background_Simple">
	<g>
		<path style="fill:#C6FF00;" d="M447.984,127.306c0,0-29.055-58.167-93.219-66.785c-64.163-8.618-108.957,33.392-156.172,54.936
			c-24.726,11.282-52.967,6.9-79.216,12.361C35.447,145.279,3.83,254.675,38.791,316.888
			c30.266,53.858,83.534,81.865,164.646,88.328c81.112,6.463,138.012,14.003,210.65-38.778
			C486.725,313.657,481.882,203.785,447.984,127.306z"/>
		<path style="opacity:0.7;fill:#FFFFFF;" d="M447.984,127.306c0,0-29.055-58.167-93.219-66.785
			c-64.163-8.618-108.957,33.392-156.172,54.936c-24.726,11.282-52.967,6.9-79.216,12.361
			C35.447,145.279,3.83,254.675,38.791,316.888c30.266,53.858,83.534,81.865,164.646,88.328
			c81.112,6.463,138.012,14.003,210.65-38.778C486.725,313.657,481.882,203.785,447.984,127.306z"/>
	</g>
</g>
<g id="Plants">
	<g>
		<g>
			<path style="fill:#C6FF00;" d="M434.776,383.654c3.459-19.891,36.323-57.943,26.81-81.294
				c-9.513-23.35-32.863,51.025-41.512,51.89c-8.648,0.865-0.865-33.728,11.243-66.592c12.108-32.863,21.621-67.457,0-80.429
				c-21.621-12.972-20.756,89.942-25.945,86.483c-5.189-3.459,3.459-46.701-2.594-73.51c-6.054-26.81-19.891-5.189-19.891,25.945
				s9.513,48.43,2.595,51.025c-6.919,2.594-28.153-7.098-27.674,26.81c0.479,33.908,26.81,74.375,17.297,69.186
				c-9.513-5.189-26.81-25.08-23.35,6.919c2.446,22.624,20.013,44.368,30.102,55.176h46.236c7.05-7.247,20.754-22.53,30.036-40.474
				C471.098,389.708,431.316,403.545,434.776,383.654z"/>
			<path style="fill:none;stroke:#263238;stroke-linecap:round;stroke-linejoin:round;stroke-miterlimit:10;" d="M378.564,453.269
				C370,441,366,426,362,412c-2-9-2-19,5-25c7-5,11,4,15,8c3-2,1-5,1-7c-2-16-3-32-3-48c0-10,4-18,8-27c2-3,4-6,7-7s6,0,7,3
				c2,7,2,14,3,21c2-2,1-5,1-7c4-29,1-57,10-85c1-2,4-4,6-3c7,1,7,10,7,16c4,29-5,57-8,86c0,2-1,4,1,6c1-7,5-14,7-21c1-3,3-7,6-9
				c2-1,4,0,6,2c4,6,5,12,4,19c-3,17-9,31-16,46c-1,3-2,6-3,9c-1,6-5,13-1,18c7-1,9-9,15-13s8,1,9,5c4,20-3,38-13.082,54.227"/>
		</g>
		<path style="fill:none;stroke:#263238;stroke-linecap:round;stroke-linejoin:round;stroke-miterlimit:10;" d="M406.572,449.446
			c0,0-2.336-46.724,3.504-89.359"/>
		<polyline style="fill:none;stroke:#263238;stroke-linecap:round;stroke-linejoin:round;stroke-miterlimit:10;" points="
			387.298,419.66 406.572,440.686 423.509,426.085 		"/>
		<polyline style="fill:none;stroke:#263238;stroke-linecap:round;stroke-linejoin:round;stroke-miterlimit:10;" points="
			401.315,367.096 406.572,393.962 421.757,367.096 		"/>
		
			<line style="fill:none;stroke:#263238;stroke-linecap:round;stroke-linejoin:round;stroke-miterlimit:10;" x1="410.66" y1="353.079" x2="414.164" y2="327.965"/>
	</g>
</g>
<g id="Window">
	<g>
		
			<rect x="70.868" y="148.309" style="fill:none;stroke:#263238;stroke-linecap:round;stroke-linejoin:round;stroke-miterlimit:10;" width="62.983" height="78.729"/>
		
			<rect x="149.596" y="148.309" style="fill:none;stroke:#263238;stroke-linecap:round;stroke-linejoin:round;stroke-miterlimit:10;" width="62.983" height="78.729"/>
		
			<rect x="70.868" y="239.921" style="fill:none;stroke:#263238;stroke-linecap:round;stroke-linejoin:round;stroke-miterlimit:10;" width="62.983" height="78.729"/>
		
			<rect x="149.596" y="239.921" style="fill:none;stroke:#263238;stroke-linecap:round;stroke-linejoin:round;stroke-miterlimit:10;" width="62.983" height="78.729"/>
		
			<rect x="70.868" y="331.532" style="fill:none;stroke:#263238;stroke-linecap:round;stroke-linejoin:round;stroke-miterlimit:10;" width="62.983" height="78.729"/>
		
			<rect x="149.596" y="331.532" style="fill:none;stroke:#263238;stroke-linecap:round;stroke-linejoin:round;stroke-miterlimit:10;" width="62.983" height="78.729"/>
		<path style="fill:none;stroke:#263238;stroke-linecap:round;stroke-linejoin:round;stroke-miterlimit:10;" d="M142.439,66.718
			L142.439,66.718c-38.737,0-70.14,31.403-70.14,70.14v0h140.28l0,0C212.579,98.12,181.176,66.718,142.439,66.718z"/>
	</g>
</g>
<g id="Character">
	<g>
		<g>
			<path style="fill:#263238;stroke:#263238;stroke-linecap:round;stroke-linejoin:round;stroke-miterlimit:10;" d="
				M233.147,104.318c0,0,0-14.972-25.752-11.978s-36.532,25.752-44.317,30.543c-7.785,4.791-22.159,8.983-22.757,16.17
				c-0.599,7.187,5.989,10.181-0.599,15.571c-6.588,5.39-16.769,10.181-14.373,17.367c2.396,7.187,8.983,14.373,5.989,19.164
				c-2.994,4.791-11.379,9.582-3.593,14.972c7.785,5.39,11.379,6.588,11.379,13.774c0,7.187-2.994,11.978,4.192,14.373
				c7.187,2.395,11.379-2.396,15.571,6.588c4.192,8.983,8.384,11.379,15.571,9.582c7.187-1.797,17.367-4.791,20.961-2.396
				c3.593,2.396,14.972,8.983,19.763,5.39c4.791-3.593,8.983-8.983,16.17-5.989s13.175,7.187,16.17,1.797
				c2.994-5.39,0-6.588,11.379-8.983c11.379-2.396,15.571-1.797,15.571-11.379c0-9.582-0.599-11.978,4.791-16.17
				c5.39-4.192,10.181-2.396,8.384-12.576c-1.797-10.181-5.39-12.577-3.593-22.758c1.797-10.181-2.994-13.774-6.588-16.769
				s-7.785-8.384-6.588-13.774c1.198-5.39,10.181-5.989,1.198-15.571c-8.983-9.582-13.175-6.588-14.972-13.774
				C255.306,110.307,249.317,94.736,233.147,104.318z"/>
			<path style="fill:none;stroke:#616161;stroke-miterlimit:10;" d="M210.157,122.35c-3.683,5.842-6.538,12.435-12.475,18
				c-8.578,8.042-30.558,15.011-31.63,22.516c-1.072,7.505,2.681,11.794-4.825,18.228c-7.505,6.433-19.3,8.042-19.3,14.475
				c0,6.433,3.217,8.578,1.608,13.403"/>
			<path style="fill:none;stroke:#616161;stroke-miterlimit:10;" d="M226.096,115.153c0,0-2.68-6.969-10.186,0
				c-0.58,0.538-1.128,1.096-1.649,1.67"/>
			<path style="fill:none;stroke:#616161;stroke-miterlimit:10;" d="M165.536,145.793c-6.6,1.6-11.801,2.75-12.35,7.423
				c-1.072,9.114,0.536,15.011-5.897,17.691c-6.433,2.681-15.011,6.969-12.331,12.331c2.681,5.361,3.217,6.969,2.681,9.114"/>
			<path style="fill:none;stroke:#616161;stroke-miterlimit:10;" d="M225.023,106.575c0,0-15.011-9.65-23.053-1.072
				c-8.042,8.578-4.289,19.3-16.619,31.094c-3.313,3.169-7.089,5.176-10.863,6.595"/>
			<path style="fill:none;stroke:#616161;stroke-miterlimit:10;" d="M277.171,182.597c1.222,1.691,2.487,2.841,3.608,3.322"/>
			<path style="fill:none;stroke:#616161;stroke-miterlimit:10;" d="M235.746,119.978c0,0,13.403-4.289,16.619,3.217
				c3.217,7.506,4.825,20.908,10.722,23.053c5.897,2.145,8.578,5.361,8.578,17.156c0,4.136,0.659,7.942,1.677,11.21"/>
			<path style="fill:none;stroke:#616161;stroke-miterlimit:10;" d="M148.896,215.405c4.289-6.969,10.186-4.289,10.722-11.794
				c0.536-7.506-3.753-9.65,0.536-14.475c4.289-4.825,11.258-6.969,11.258-6.969"/>
			<path style="fill:none;stroke:#616161;stroke-miterlimit:10;" d="M154.794,230.416c0,0-3.046-2.405-5.105-5.723"/>
		</g>
		<g>
			<g>
				<defs>
					<path id="XMLID_10_" d="M303.216,455.262c0,0,1.797-24.554-8.983-49.108c-10.78-24.554-13.217-26.338-13.217-33.524
						c0-7.187,7.228-15.584,8.426-31.753c1.198-16.17,0.599-23.955,0.599-23.955s25.752,40.724,43.718,43.119
						c17.966,2.395,28.746-14.373,22.159-37.131c-6.588-22.757-35.334-41.323-46.713-56.295
						c-11.379-14.972-37.13-14.972-50.306-14.972c-13.175,0-19.763-4.791-22.159-13.774c-2.395-8.983-2.395-26.95-2.395-26.95
						s-15.571,9.582-41.922-1.198c0,0,2.395,32.938-0.599,37.729c-2.994,4.791-7.186,9.582-25.153,9.582
						s-32.938,3.593-41.323,11.978c-8.384,8.384-43.119,41.922-52.103,55.097c-8.983,13.175-4.192,27.548,6.588,32.938
						c10.78,5.39,21.56,0.599,29.345-6.588c7.785-7.187,32.34-29.944,32.34-29.944s0,13.774,6.588,33.537
						c6.588,19.763,11.978,17.367,7.187,31.741c-4.791,14.373-14.373,18.565-17.368,37.131s-2.395,32.34-2.395,32.34"/>
				</defs>
				<use xlink:href="#XMLID_10_"  style="overflow:visible;fill:#C6FF00;"/>
				<clipPath id="XMLID_00000010990560156961033230000008236413214298259621_">
					<use xlink:href="#XMLID_10_"  style="overflow:visible;"/>
				</clipPath>
				<g style="opacity:0.2;clip-path:url(#XMLID_00000010990560156961033230000008236413214298259621_);">
					<path d="M263.92,270.349c-0.412,0-1.912,1.025,0,3.913C265.833,271.374,264.333,270.349,263.92,270.349z"/>
					<path d="M311.92,270.349c-0.412,0-1.912,1.025,0,3.913C313.833,271.374,312.333,270.349,311.92,270.349z"/>
					<path d="M311.92,294.349c-0.412,0-1.912,1.025,0,3.913C313.833,295.374,312.333,294.349,311.92,294.349z"/>
					<path d="M263.92,294.349c-0.412,0-1.912,1.025,0,3.913C265.833,295.374,264.333,294.349,263.92,294.349z"/>
					<path d="M287.92,282.349c-0.412,0-1.912,1.025,0,3.913C289.833,283.374,288.333,282.349,287.92,282.349z"/>
					<path d="M287.92,258.349c-0.412,0-1.912,1.025,0,3.913C289.833,259.374,288.333,258.349,287.92,258.349z"/>
					<path d="M264.957,274.857c3.458,0.197,3.588-1.614,3.38-1.972C268.129,272.529,266.487,271.75,264.957,274.857z"/>
					<path d="M315.927,274.166c-0.452-0.458-0.893-0.912-1.327-1.363c-0.513,0.308-1.085,0.921-1.643,2.054
						C314.577,274.949,315.461,274.599,315.927,274.166z"/>
					<path d="M288.957,286.857c3.458,0.197,3.588-1.614,3.38-1.972C292.129,284.529,290.487,283.75,288.957,286.857z"/>
					<path d="M288.957,262.857c3.458,0.197,3.588-1.614,3.38-1.972C292.129,260.529,290.487,259.75,288.957,262.857z"/>
					<path d="M307.504,272.885c-0.208,0.357-0.077,2.169,3.381,1.972C309.353,271.75,307.712,272.529,307.504,272.885z"/>
					<path d="M307.504,296.885c-0.118,0.202-0.126,0.871,0.517,1.377h0c0.492,0.388,1.364,0.68,2.864,0.595
						c-0.108-0.219-0.216-0.413-0.324-0.595C309.13,295.862,307.697,296.554,307.504,296.885z"/>
					<path d="M283.504,284.885c-0.208,0.357-0.077,2.169,3.381,1.972C285.353,283.75,283.712,284.529,283.504,284.885z"/>
					<path d="M283.504,260.885c-0.208,0.357-0.077,2.169,3.381,1.972C285.353,259.75,283.712,260.529,283.504,260.885z"/>
					<path d="M263.92,342.349c-0.412,0-1.912,1.025,0,3.913C265.833,343.374,264.333,342.349,263.92,342.349z"/>
					<path d="M311.92,342.349c-0.298,0-1.158,0.54-0.893,1.928c0.422,0.453,0.847,0.902,1.274,1.347
						C313.599,343.224,312.301,342.349,311.92,342.349z"/>
					<path d="M263.92,366.349c-0.412,0-1.912,1.025,0,3.913C265.833,367.374,264.333,366.349,263.92,366.349z"/>
					<path d="M335.92,354.349c-0.412,0-1.912,1.025,0,3.913C337.832,355.374,336.332,354.349,335.92,354.349z"/>
					<path d="M263.92,318.349c-0.412,0-1.912,1.025,0,3.913C265.833,319.374,264.333,318.349,263.92,318.349z"/>
					<path d="M311.92,318.349c-0.412,0-1.912,1.025,0,3.913C313.833,319.374,312.333,318.349,311.92,318.349z"/>
					<path d="M287.92,330.349c-0.412,0-1.912,1.025,0,3.913C289.833,331.374,288.333,330.349,287.92,330.349z"/>
					<path d="M335.92,330.349c-0.412,0-1.912,1.025,0,3.913C337.832,331.374,336.332,330.349,335.92,330.349z"/>
					<path d="M287.92,306.349c-0.412,0-1.912,1.025,0,3.913C289.833,307.374,288.333,306.349,287.92,306.349z"/>
					<path d="M335.92,306.349c-0.412,0-1.912,1.025,0,3.913C337.832,307.374,336.332,306.349,335.92,306.349z"/>
					<path d="M264.957,346.857c3.458,0.197,3.588-1.614,3.38-1.972C268.129,344.529,266.487,343.75,264.957,346.857z"/>
					<path d="M313.149,346.499c0.122,0.124,0.244,0.248,0.366,0.371c2.91-0.02,3.018-1.648,2.821-1.985
						C316.137,344.543,314.622,343.824,313.149,346.499z"/>
					<path d="M267.58,368.533c-0.333-0.021-0.75,0.074-1.202,0.418c-0.181,0.137-0.368,0.314-0.558,0.539
						c-0.178,0.211-0.358,0.469-0.538,0.771c-0.012,0.02-0.024,0.036-0.036,0.057c-0.096,0.165-0.192,0.344-0.288,0.538
						c1.5,0.085,2.372-0.207,2.864-0.595h0c0.075-0.059,0.143-0.12,0.201-0.183c0.11-0.118,0.191-0.241,0.249-0.361
						c0.175-0.36,0.144-0.699,0.066-0.833C268.259,368.751,267.979,368.558,267.58,368.533z"/>
					<path d="M336.957,358.857c3.457,0.197,3.586-1.614,3.379-1.972C340.129,356.529,338.486,355.75,336.957,358.857z"/>
					<path d="M264.957,322.857c3.458,0.197,3.588-1.614,3.38-1.972C268.129,320.529,266.487,319.75,264.957,322.857z"/>
					<path d="M316.336,320.885c-0.207-0.357-1.849-1.135-3.379,1.972C316.414,323.054,316.545,321.242,316.336,320.885z"/>
					<path d="M288.957,334.857c0.322,0.018,0.606,0.014,0.872,0.001c0.027-0.5,0.051-0.98,0.075-1.458
						C289.593,333.748,289.273,334.216,288.957,334.857z"/>
					<path d="M336.957,334.857c3.457,0.197,3.586-1.614,3.379-1.972C340.129,332.529,338.486,331.75,336.957,334.857z"/>
					<path d="M288.957,310.857c3.458,0.197,3.588-1.614,3.38-1.972C292.129,308.529,290.487,307.75,288.957,310.857z"/>
					<path d="M336.957,310.857c3.457,0.197,3.586-1.614,3.379-1.972C340.129,308.529,338.486,307.75,336.957,310.857z"/>
					<path d="M285.29,358.781c0.183-0.485,0.364-0.983,0.546-1.49c-1.158-1.2-2.172-0.682-2.333-0.407
						C283.334,357.176,283.391,358.433,285.29,358.781z"/>
					<path d="M355.504,344.885c-0.127,0.217-0.124,0.97,0.671,1.484c0.204-0.58,0.389-1.176,0.558-1.786
						C356.087,344.416,355.609,344.704,355.504,344.885z"/>
					<path d="M331.504,356.885c-0.209,0.357-0.078,2.169,3.381,1.972C333.353,355.75,331.711,356.529,331.504,356.885z"/>
					<path d="M307.504,320.885c-0.208,0.357-0.077,2.169,3.381,1.972C309.353,319.75,307.712,320.529,307.504,320.885z"/>
					<path d="M283.504,332.885c-0.208,0.357-0.077,2.169,3.381,1.972C285.353,331.75,283.712,332.529,283.504,332.885z"/>
					<path d="M331.504,332.885c-0.209,0.357-0.078,2.169,3.381,1.972C333.353,331.75,331.711,332.529,331.504,332.885z"/>
					<path d="M283.504,308.885c-0.208,0.357-0.077,2.169,3.381,1.972C285.353,307.75,283.712,308.529,283.504,308.885z"/>
					<path d="M331.504,308.885c-0.209,0.357-0.078,2.169,3.381,1.972C333.353,307.75,331.711,308.529,331.504,308.885z"/>
					<path d="M315.82,298.262L315.82,298.262c0.642-0.506,0.634-1.175,0.516-1.377c-0.192-0.331-1.625-1.023-3.055,1.377l0,0
						c-0.108,0.182-0.216,0.376-0.324,0.595C314.456,298.942,315.329,298.65,315.82,298.262z"/>
					<path d="M267.821,298.262L267.821,298.262c0.642-0.506,0.634-1.175,0.516-1.377c-0.193-0.331-1.626-1.023-3.056,1.377l0,0
						c-0.108,0.182-0.216,0.376-0.324,0.595C266.457,298.942,267.329,298.65,267.821,298.262z"/>
					<path d="M263.92,414.349c-0.412,0-1.912,1.025,0,3.913C265.833,415.374,264.333,414.349,263.92,414.349z"/>
					<path d="M263.92,438.349c-0.412,0-1.912,1.025,0,3.913C265.833,439.374,264.333,438.349,263.92,438.349z"/>
					<path d="M287.92,426.349c-0.412,0-1.912,1.025,0,3.913C289.833,427.374,288.333,426.349,287.92,426.349z"/>
					<path d="M263.92,390.349c-0.412,0-1.912,1.025,0,3.913C265.833,391.374,264.333,390.349,263.92,390.349z"/>
					<path d="M287.92,402.349c-0.412,0-1.912,1.025,0,3.913C289.833,403.374,288.333,402.349,287.92,402.349z"/>
					<path d="M264.957,418.857c3.458,0.197,3.588-1.614,3.38-1.972C268.129,416.529,266.487,415.75,264.957,418.857z"/>
					<path d="M267.58,440.533c-0.067-0.004-0.137-0.004-0.21,0.002c-0.219,0.018-0.464,0.089-0.726,0.238
						c-0.087,0.05-0.176,0.109-0.267,0.177c-0.351,0.266-0.724,0.686-1.096,1.311l0,0c-0.108,0.182-0.216,0.376-0.324,0.595
						c1.5,0.085,2.372-0.207,2.864-0.595h0c0.642-0.506,0.634-1.174,0.516-1.377C268.259,440.751,267.979,440.558,267.58,440.533z"
						/>
					<path d="M288.957,430.857c3.458,0.197,3.588-1.614,3.38-1.972C292.129,428.529,290.487,427.75,288.957,430.857z"/>
					<path d="M264.957,394.857c3.458,0.197,3.588-1.614,3.38-1.972C268.129,392.529,266.487,391.75,264.957,394.857z"/>
					<path d="M288.957,406.857c3.458,0.197,3.588-1.614,3.38-1.972C292.129,404.529,290.487,403.75,288.957,406.857z"/>
					<path d="M283.504,428.885c-0.208,0.357-0.077,2.169,3.381,1.972C285.353,427.75,283.712,428.529,283.504,428.885z"/>
					<path d="M283.504,404.885c-0.208,0.357-0.077,2.169,3.381,1.972C285.353,403.75,283.712,404.529,283.504,404.885z"/>
					<path d="M287.92,450.349c-0.412,0-1.912,1.025,0,3.913C289.833,451.374,288.333,450.349,287.92,450.349z"/>
					<path d="M288.957,454.857c3.458,0.197,3.588-1.614,3.38-1.972C292.129,452.529,290.487,451.75,288.957,454.857z"/>
					<path d="M283.504,452.885c-0.208,0.358-0.077,2.169,3.381,1.972C285.353,451.75,283.712,452.529,283.504,452.885z"/>
					<path d="M215.92,222.349c-0.412,0-1.912,1.025,0,3.913C217.833,223.374,216.333,222.349,215.92,222.349z"/>
					<path d="M192.49,210.676c0.036,0.544,0.085,1.298,0.143,2.234C193.068,211.756,192.823,211.046,192.49,210.676z"/>
					<path d="M219.579,224.533c-0.333-0.021-0.749,0.075-1.202,0.418c-0.181,0.137-0.368,0.314-0.558,0.54
						c-0.178,0.211-0.358,0.469-0.538,0.771c-0.012,0.02-0.024,0.036-0.036,0.057c-0.096,0.165-0.192,0.344-0.288,0.538
						c1.499,0.086,2.372-0.207,2.863-0.595h0c0.075-0.059,0.143-0.12,0.201-0.183c0.11-0.118,0.191-0.241,0.249-0.361
						c0.175-0.361,0.144-0.699,0.066-0.833C220.258,224.751,219.979,224.558,219.579,224.533z"/>
					<path d="M192.957,214.857c3.458,0.197,3.588-1.614,3.38-1.972C196.129,212.529,194.487,211.75,192.957,214.857z"/>
					<path d="M168.845,271.461c-0.026-0.169-0.073-0.317-0.133-0.445c-0.001-0.003-0.001-0.006-0.003-0.008
						c-0.031-0.066-0.066-0.127-0.104-0.182c-0.002-0.002-0.004-0.003-0.005-0.006c-0.072-0.106-0.153-0.193-0.234-0.262
						c-0.003-0.002-0.005-0.004-0.008-0.006c-0.083-0.069-0.165-0.119-0.24-0.152c-0.001,0-0.001-0.001-0.002-0.001
						c0,0-0.001,0-0.001,0c-0.076-0.033-0.145-0.049-0.196-0.049c-0.051,0-0.12,0.016-0.197,0.05
						c-0.46,0.202-1.216,1.04-0.369,2.866c0.141,0.304,0.327,0.636,0.566,0.997c0.239-0.361,0.425-0.693,0.566-0.997
						c0.283-0.609,0.387-1.108,0.383-1.51c-0.001-0.1-0.008-0.195-0.022-0.284C168.847,271.467,168.845,271.465,168.845,271.461z"/>
					<path d="M215.92,270.349c-0.412,0-1.912,1.025,0,3.913C217.833,271.374,216.333,270.349,215.92,270.349z"/>
					<path d="M215.92,294.349c-0.412,0-1.912,1.025,0,3.913C217.833,295.374,216.333,294.349,215.92,294.349z"/>
					<path d="M168.845,295.461c-0.026-0.169-0.073-0.317-0.133-0.445c-0.001-0.003-0.001-0.006-0.003-0.008
						c-0.031-0.066-0.066-0.127-0.104-0.182c-0.002-0.002-0.004-0.003-0.005-0.006c-0.072-0.106-0.153-0.193-0.234-0.262
						c-0.003-0.002-0.005-0.004-0.008-0.006c-0.083-0.069-0.165-0.119-0.24-0.152c-0.001,0-0.001-0.001-0.002-0.001
						c0,0-0.001,0-0.001,0c-0.076-0.033-0.145-0.049-0.196-0.049c-0.051,0-0.12,0.016-0.197,0.05
						c-0.46,0.202-1.216,1.04-0.369,2.866c0.141,0.304,0.327,0.636,0.566,0.997c0.239-0.361,0.425-0.693,0.566-0.997
						c0.283-0.609,0.387-1.108,0.383-1.51c-0.001-0.1-0.008-0.195-0.022-0.284C168.847,295.467,168.845,295.465,168.845,295.461z"/>
					<path d="M191.92,282.349c-0.412,0-1.912,1.025,0,3.913C193.833,283.374,192.333,282.349,191.92,282.349z"/>
					<path d="M239.92,282.349c-0.412,0-1.912,1.025,0,3.913C241.832,283.374,240.332,282.349,239.92,282.349z"/>
					<path d="M215.92,246.349c-0.412,0-1.912,1.025,0,3.913C217.833,247.374,216.333,246.349,215.92,246.349z"/>
					<path d="M191.92,258.349c-0.412,0-1.912,1.025,0,3.913C193.833,259.374,192.333,258.349,191.92,258.349z"/>
					<path d="M239.92,258.349c-0.412,0-1.912,1.025,0,3.913C241.832,259.374,240.332,258.349,239.92,258.349z"/>
					<path d="M168.957,274.857c3.458,0.197,3.588-1.614,3.38-1.972C172.129,272.529,170.487,271.75,168.957,274.857z"/>
					<path d="M216.957,274.857c3.457,0.197,3.588-1.614,3.379-1.972C220.129,272.529,218.487,271.75,216.957,274.857z"/>
					<path d="M192.957,286.857c3.458,0.197,3.588-1.614,3.38-1.972C196.129,284.529,194.487,283.75,192.957,286.857z"/>
					<path d="M240.957,286.857c3.457,0.197,3.586-1.614,3.379-1.972C244.129,284.529,242.486,283.75,240.957,286.857z"/>
					<path d="M216.957,250.857c3.457,0.197,3.588-1.614,3.379-1.972C220.129,248.529,218.487,247.75,216.957,250.857z"/>
					<path d="M192.957,262.857c3.458,0.197,3.588-1.614,3.38-1.972C196.129,260.529,194.487,259.75,192.957,262.857z"/>
					<path d="M240.957,262.857c3.457,0.197,3.586-1.614,3.379-1.972C244.129,260.529,242.486,259.75,240.957,262.857z"/>
					<path d="M196.337,236.885c-0.196-0.335-1.657-1.041-3.103,1.453c-0.007,0.177-0.015,0.35-0.023,0.524
						C196.412,238.955,196.539,237.233,196.337,236.885z"/>
					<path d="M211.504,272.885c-0.208,0.357-0.077,2.169,3.381,1.972C213.354,271.75,211.712,272.529,211.504,272.885z"/>
					<path d="M211.504,296.885c-0.118,0.202-0.126,0.871,0.517,1.377h0c0.492,0.388,1.364,0.68,2.864,0.595
						c-0.108-0.219-0.216-0.413-0.324-0.595C213.13,295.862,211.697,296.554,211.504,296.885z"/>
					<path d="M187.504,284.885c-0.208,0.357-0.077,2.169,3.381,1.972C189.354,283.75,187.712,284.529,187.504,284.885z"/>
					<path d="M259.504,272.885c-0.209,0.357-0.078,2.169,3.379,1.972C261.353,271.75,259.711,272.529,259.504,272.885z"/>
					<path d="M262.559,298.262c-1.429-2.4-2.863-1.708-3.055-1.377c-0.118,0.202-0.126,0.871,0.516,1.377h0
						c0.492,0.388,1.364,0.68,2.863,0.595C262.775,298.638,262.667,298.444,262.559,298.262L262.559,298.262z"/>
					<path d="M235.504,284.885c-0.209,0.357-0.078,2.169,3.381,1.972C237.354,283.75,235.711,284.529,235.504,284.885z"/>
					<path d="M211.504,248.885c-0.208,0.357-0.077,2.169,3.381,1.972C213.354,247.75,211.712,248.529,211.504,248.885z"/>
					<path d="M187.504,260.885c-0.208,0.357-0.077,2.169,3.381,1.972C189.354,259.75,187.712,260.529,187.504,260.885z"/>
					<path d="M235.504,260.885c-0.209,0.357-0.078,2.169,3.381,1.972C237.354,259.75,235.711,260.529,235.504,260.885z"/>
					<path d="M236.999,238.713c-0.086-0.281-0.18-0.555-0.258-0.845c-0.113-0.424-0.219-0.873-0.321-1.333
						c-0.483-0.023-0.828,0.2-0.915,0.35C235.343,237.16,235.39,238.295,236.999,238.713z"/>
					<path d="M214.561,226.262c-0.18-0.302-0.361-0.56-0.539-0.771c-0.19-0.225-0.377-0.402-0.558-0.54
						c-0.453-0.343-0.87-0.439-1.203-0.418c-0.4,0.025-0.679,0.218-0.757,0.352c-0.078,0.134-0.108,0.473,0.067,0.833
						c0.058,0.12,0.139,0.243,0.249,0.361c0.058,0.063,0.126,0.124,0.201,0.183h0c0.492,0.388,1.364,0.68,2.864,0.595
						c-0.096-0.194-0.192-0.373-0.288-0.538C214.585,226.298,214.573,226.282,214.561,226.262z"/>
					<path d="M168.845,343.461c-0.026-0.169-0.073-0.317-0.133-0.445c-0.001-0.003-0.001-0.006-0.003-0.008
						c-0.031-0.066-0.066-0.127-0.104-0.182c-0.002-0.002-0.004-0.003-0.005-0.006c-0.072-0.106-0.153-0.193-0.234-0.262
						c-0.003-0.002-0.005-0.004-0.008-0.006c-0.083-0.069-0.165-0.119-0.24-0.152c-0.001,0-0.001-0.001-0.002-0.001
						c0,0-0.001,0-0.001,0c-0.076-0.033-0.145-0.049-0.196-0.049c-0.051,0-0.12,0.016-0.197,0.05
						c-0.46,0.202-1.216,1.04-0.369,2.866c0.141,0.304,0.327,0.636,0.566,0.997c0.239-0.361,0.425-0.693,0.566-0.997
						c0.283-0.609,0.387-1.108,0.383-1.51c-0.001-0.1-0.008-0.195-0.022-0.284C168.847,343.467,168.845,343.465,168.845,343.461z"/>
					<path d="M215.92,342.349c-0.412,0-1.912,1.025,0,3.913C217.833,343.374,216.333,342.349,215.92,342.349z"/>
					<path d="M215.92,366.349c-0.412,0-1.912,1.025,0,3.913C217.833,367.374,216.333,366.349,215.92,366.349z"/>
					<path d="M168.845,367.461c-0.026-0.169-0.073-0.317-0.133-0.445c-0.001-0.002-0.001-0.006-0.003-0.008
						c-0.031-0.066-0.066-0.127-0.104-0.182c-0.002-0.002-0.004-0.004-0.005-0.006c-0.072-0.106-0.153-0.193-0.234-0.262
						c-0.003-0.002-0.005-0.004-0.008-0.007c-0.083-0.069-0.165-0.119-0.24-0.152c-0.001,0-0.001-0.001-0.002-0.001
						c0,0-0.001,0-0.001,0c-0.076-0.033-0.145-0.049-0.196-0.049c-0.051,0-0.12,0.016-0.197,0.05
						c-0.46,0.202-1.216,1.04-0.369,2.866c0.141,0.304,0.327,0.636,0.566,0.997c0.239-0.361,0.425-0.693,0.566-0.997
						c0.283-0.609,0.387-1.108,0.383-1.51c-0.001-0.101-0.008-0.195-0.022-0.284C168.847,367.467,168.845,367.465,168.845,367.461z"
						/>
					<path d="M191.92,354.349c-0.412,0-1.912,1.025,0,3.913C193.833,355.374,192.333,354.349,191.92,354.349z"/>
					<path d="M239.92,354.349c-0.412,0-1.912,1.025,0,3.913C241.832,355.374,240.332,354.349,239.92,354.349z"/>
					<path d="M168.845,319.461c-0.026-0.169-0.073-0.317-0.133-0.445c-0.001-0.003-0.001-0.006-0.003-0.008
						c-0.031-0.066-0.066-0.127-0.104-0.182c-0.002-0.002-0.004-0.003-0.005-0.006c-0.072-0.106-0.153-0.193-0.234-0.262
						c-0.003-0.002-0.005-0.004-0.008-0.006c-0.083-0.069-0.165-0.119-0.24-0.152c-0.001,0-0.001-0.001-0.002-0.001
						c0,0-0.001,0-0.001,0c-0.076-0.033-0.145-0.049-0.196-0.049c-0.051,0-0.12,0.016-0.197,0.05
						c-0.46,0.202-1.216,1.04-0.369,2.866c0.141,0.304,0.327,0.636,0.566,0.997c0.239-0.361,0.425-0.693,0.566-0.997
						c0.283-0.609,0.387-1.108,0.383-1.51c-0.001-0.1-0.008-0.195-0.022-0.284C168.847,319.467,168.845,319.465,168.845,319.461z"/>
					<path d="M215.92,318.349c-0.412,0-1.912,1.025,0,3.913C217.833,319.374,216.333,318.349,215.92,318.349z"/>
					<path d="M191.92,330.349c-0.412,0-1.912,1.025,0,3.913C193.833,331.374,192.333,330.349,191.92,330.349z"/>
					<path d="M239.92,330.349c-0.412,0-1.912,1.025,0,3.913C241.832,331.374,240.332,330.349,239.92,330.349z"/>
					<path d="M191.92,306.349c-0.412,0-1.912,1.025,0,3.913C193.833,307.374,192.333,306.349,191.92,306.349z"/>
					<path d="M239.92,306.349c-0.412,0-1.912,1.025,0,3.913C241.832,307.374,240.332,306.349,239.92,306.349z"/>
					<path d="M168.957,346.857c3.458,0.197,3.588-1.614,3.38-1.972C172.129,344.529,170.487,343.75,168.957,346.857z"/>
					<path d="M216.957,346.857c3.457,0.197,3.588-1.614,3.379-1.972C220.129,344.529,218.487,343.75,216.957,346.857z"/>
					<path d="M219.579,368.533c-0.333-0.021-0.749,0.074-1.202,0.418c-0.181,0.137-0.368,0.314-0.558,0.539
						c-0.178,0.211-0.358,0.469-0.538,0.771c-0.012,0.02-0.024,0.036-0.036,0.057c-0.096,0.165-0.192,0.344-0.288,0.538
						c1.499,0.085,2.372-0.207,2.863-0.595h0c0.075-0.059,0.143-0.12,0.201-0.183c0.11-0.118,0.191-0.241,0.249-0.361
						c0.175-0.36,0.144-0.699,0.066-0.833C220.258,368.751,219.979,368.558,219.579,368.533z"/>
					<path d="M171.58,368.533c-0.333-0.021-0.75,0.074-1.202,0.418c-0.181,0.137-0.368,0.314-0.558,0.539
						c-0.178,0.211-0.358,0.469-0.538,0.771c-0.012,0.02-0.024,0.036-0.036,0.057c-0.096,0.165-0.192,0.344-0.288,0.538
						c1.5,0.085,2.372-0.207,2.864-0.595h0c0.075-0.059,0.143-0.12,0.201-0.183c0.11-0.118,0.191-0.241,0.249-0.361
						c0.175-0.36,0.144-0.699,0.066-0.833C172.259,368.751,171.979,368.558,171.58,368.533z"/>
					<path d="M192.957,358.857c3.458,0.197,3.588-1.614,3.38-1.972C196.129,356.529,194.487,355.75,192.957,358.857z"/>
					<path d="M240.957,358.857c3.457,0.197,3.586-1.614,3.379-1.972C244.129,356.529,242.486,355.75,240.957,358.857z"/>
					<path d="M168.957,322.857c3.458,0.197,3.588-1.614,3.38-1.972C172.129,320.529,170.487,319.75,168.957,322.857z"/>
					<path d="M216.957,322.857c3.457,0.197,3.588-1.614,3.379-1.972C220.129,320.529,218.487,319.75,216.957,322.857z"/>
					<path d="M192.957,334.857c3.458,0.197,3.588-1.614,3.38-1.972C196.129,332.529,194.487,331.75,192.957,334.857z"/>
					<path d="M240.957,334.857c3.457,0.197,3.586-1.614,3.379-1.972C244.129,332.529,242.486,331.75,240.957,334.857z"/>
					<path d="M192.957,310.857c3.458,0.197,3.588-1.614,3.38-1.972C196.129,308.529,194.487,307.75,192.957,310.857z"/>
					<path d="M240.957,310.857c3.457,0.197,3.586-1.614,3.379-1.972C244.129,308.529,242.486,307.75,240.957,310.857z"/>
					<path d="M211.504,344.885c-0.208,0.357-0.077,2.169,3.381,1.972C213.354,343.75,211.712,344.529,211.504,344.885z"/>
					<path d="M187.504,356.885c-0.208,0.357-0.077,2.169,3.381,1.972C189.354,355.75,187.712,356.529,187.504,356.885z"/>
					<path d="M259.504,344.885c-0.209,0.357-0.078,2.169,3.379,1.972C261.353,343.75,259.711,344.529,259.504,344.885z"/>
					<path d="M235.504,356.885c-0.209,0.357-0.078,2.169,3.381,1.972C237.354,355.75,235.711,356.529,235.504,356.885z"/>
					<path d="M173.587,373.262c0,0,26,6.667,58.667-18.667c32.667-25.333,45.333-15.333,44,2.667
						c-1.333,18-29.333,34.667-41.333,36.667C215.187,397.217,197.587,402.595,173.587,373.262z"/>
					<path d="M211.504,320.885c-0.208,0.357-0.077,2.169,3.381,1.972C213.354,319.75,211.712,320.529,211.504,320.885z"/>
					<path d="M187.504,332.885c-0.208,0.357-0.077,2.169,3.381,1.972C189.354,331.75,187.712,332.529,187.504,332.885z"/>
					<path d="M259.504,320.885c-0.209,0.357-0.078,2.169,3.379,1.972C261.353,319.75,259.711,320.529,259.504,320.885z"/>
					<path d="M235.504,332.885c-0.209,0.357-0.078,2.169,3.381,1.972C237.354,331.75,235.711,332.529,235.504,332.885z"/>
					<path d="M187.504,308.885c-0.208,0.357-0.077,2.169,3.381,1.972C189.354,307.75,187.712,308.529,187.504,308.885z"/>
					<path d="M235.504,308.885c-0.209,0.357-0.078,2.169,3.381,1.972C237.354,307.75,235.711,308.529,235.504,308.885z"/>
					<path d="M219.82,298.262L219.82,298.262c0.642-0.506,0.634-1.175,0.516-1.377c-0.193-0.331-1.625-1.023-3.055,1.377l0,0
						c-0.108,0.182-0.216,0.376-0.324,0.595C218.456,298.942,219.329,298.65,219.82,298.262z"/>
					<path d="M171.821,298.262L171.821,298.262c0.642-0.506,0.634-1.175,0.516-1.377c-0.193-0.331-1.626-1.023-3.056,1.377l0,0
						c-0.108,0.182-0.216,0.376-0.324,0.595C170.457,298.942,171.329,298.65,171.821,298.262z"/>
					<path d="M168.845,415.461c-0.026-0.169-0.073-0.317-0.133-0.445c-0.001-0.002-0.001-0.006-0.003-0.008
						c-0.031-0.066-0.066-0.127-0.104-0.182c-0.002-0.002-0.004-0.004-0.005-0.006c-0.072-0.106-0.153-0.193-0.234-0.262
						c-0.003-0.002-0.005-0.004-0.008-0.007c-0.083-0.069-0.165-0.119-0.24-0.152c-0.001,0-0.001-0.001-0.002-0.001
						c0,0-0.001,0-0.001,0c-0.076-0.033-0.145-0.049-0.196-0.049c-0.051,0-0.12,0.016-0.197,0.05
						c-0.46,0.202-1.216,1.04-0.369,2.866c0.141,0.304,0.327,0.636,0.566,0.997c0.239-0.361,0.425-0.693,0.566-0.997
						c0.283-0.609,0.387-1.108,0.383-1.51c-0.001-0.101-0.008-0.195-0.022-0.284C168.847,415.467,168.845,415.465,168.845,415.461z"
						/>
					<path d="M215.92,414.349c-0.412,0-1.912,1.025,0,3.913C217.833,415.374,216.333,414.349,215.92,414.349z"/>
					<path d="M215.92,438.349c-0.412,0-1.912,1.025,0,3.913C217.833,439.374,216.333,438.349,215.92,438.349z"/>
					<path d="M168.845,439.461c-0.026-0.169-0.073-0.317-0.133-0.445c-0.001-0.002-0.001-0.006-0.003-0.008
						c-0.031-0.066-0.066-0.127-0.104-0.182c-0.002-0.002-0.004-0.004-0.005-0.006c-0.072-0.106-0.153-0.193-0.234-0.262
						c-0.003-0.002-0.005-0.004-0.008-0.007c-0.083-0.069-0.165-0.119-0.24-0.152c-0.001,0-0.001-0.001-0.002-0.001
						c0,0-0.001,0-0.001,0c-0.076-0.033-0.145-0.049-0.196-0.049c-0.051,0-0.12,0.016-0.197,0.05
						c-0.46,0.202-1.216,1.04-0.369,2.866c0.141,0.304,0.327,0.636,0.566,0.997c0.239-0.361,0.425-0.693,0.566-0.997
						c0.283-0.609,0.387-1.108,0.383-1.51c-0.001-0.101-0.008-0.195-0.022-0.284C168.847,439.467,168.845,439.465,168.845,439.461z"
						/>
					<path d="M191.92,426.349c-0.412,0-1.912,1.025,0,3.913C193.833,427.374,192.333,426.349,191.92,426.349z"/>
					<path d="M239.92,426.349c-0.412,0-1.912,1.025,0,3.913C241.832,427.374,240.332,426.349,239.92,426.349z"/>
					<path d="M168.845,391.461c-0.026-0.169-0.073-0.317-0.133-0.445c-0.001-0.002-0.001-0.006-0.003-0.008
						c-0.031-0.066-0.066-0.127-0.104-0.182c-0.002-0.002-0.004-0.004-0.005-0.006c-0.072-0.106-0.153-0.193-0.234-0.262
						c-0.003-0.002-0.005-0.004-0.008-0.007c-0.083-0.069-0.165-0.119-0.24-0.152c-0.001,0-0.001-0.001-0.002-0.001
						c0,0-0.001,0-0.001,0c-0.076-0.033-0.145-0.049-0.196-0.049c-0.051,0-0.12,0.016-0.197,0.05
						c-0.46,0.202-1.216,1.04-0.369,2.866c0.141,0.304,0.327,0.636,0.566,0.997c0.239-0.361,0.425-0.693,0.566-0.997
						c0.283-0.609,0.387-1.108,0.383-1.51c-0.001-0.101-0.008-0.195-0.022-0.284C168.847,391.467,168.845,391.465,168.845,391.461z"
						/>
					<path d="M215.92,390.349c-0.412,0-1.912,1.025,0,3.913C217.833,391.374,216.333,390.349,215.92,390.349z"/>
					<path d="M191.92,402.349c-0.412,0-1.912,1.025,0,3.913C193.833,403.374,192.333,402.349,191.92,402.349z"/>
					<path d="M239.92,402.349c-0.412,0-1.912,1.025,0,3.913C241.832,403.374,240.332,402.349,239.92,402.349z"/>
					<path d="M191.92,378.349c-0.412,0-1.912,1.025,0,3.913C193.833,379.374,192.333,378.349,191.92,378.349z"/>
					<path d="M239.92,378.349c-0.412,0-1.912,1.025,0,3.913C241.832,379.374,240.332,378.349,239.92,378.349z"/>
					<path d="M168.957,418.857c3.458,0.197,3.588-1.614,3.38-1.972C172.129,416.529,170.487,415.75,168.957,418.857z"/>
					<path d="M216.957,418.857c3.457,0.197,3.588-1.614,3.379-1.972C220.129,416.529,218.487,415.75,216.957,418.857z"/>
					<path d="M219.579,440.533c-0.067-0.004-0.136-0.004-0.209,0.002c-0.219,0.018-0.464,0.089-0.726,0.238
						c-0.087,0.05-0.176,0.109-0.267,0.177c-0.351,0.266-0.724,0.686-1.096,1.311l0,0c-0.108,0.182-0.216,0.376-0.324,0.595
						c1.499,0.085,2.372-0.207,2.863-0.595h0c0.642-0.506,0.634-1.174,0.516-1.377C220.258,440.751,219.979,440.558,219.579,440.533
						z"/>
					<path d="M171.58,440.533c-0.067-0.004-0.137-0.004-0.209,0.002c-0.219,0.018-0.464,0.089-0.726,0.238
						c-0.087,0.05-0.176,0.109-0.267,0.177c-0.351,0.266-0.724,0.686-1.096,1.311l0,0c-0.108,0.182-0.216,0.376-0.324,0.595
						c1.5,0.085,2.372-0.207,2.864-0.595h0c0.642-0.506,0.634-1.174,0.516-1.377C172.259,440.751,171.979,440.558,171.58,440.533z"
						/>
					<path d="M192.957,430.857c3.458,0.197,3.588-1.614,3.38-1.972C196.129,428.529,194.487,427.75,192.957,430.857z"/>
					<path d="M240.957,430.857c3.457,0.197,3.586-1.614,3.379-1.972C244.129,428.529,242.486,427.75,240.957,430.857z"/>
					<path d="M168.957,394.857c3.458,0.197,3.588-1.614,3.38-1.972C172.129,392.529,170.487,391.75,168.957,394.857z"/>
					<path d="M216.957,394.857c3.457,0.197,3.588-1.614,3.379-1.972C220.129,392.529,218.487,391.75,216.957,394.857z"/>
					<path d="M192.957,406.857c3.458,0.197,3.588-1.614,3.38-1.972C196.129,404.529,194.487,403.75,192.957,406.857z"/>
					<path d="M240.957,406.857c3.457,0.197,3.586-1.614,3.379-1.972C244.129,404.529,242.486,403.75,240.957,406.857z"/>
					<path d="M192.957,382.857c3.458,0.197,3.588-1.614,3.38-1.972C196.129,380.529,194.487,379.75,192.957,382.857z"/>
					<path d="M240.957,382.857c3.457,0.197,3.586-1.614,3.379-1.972C244.129,380.529,242.486,379.75,240.957,382.857z"/>
					<path d="M211.504,416.885c-0.208,0.357-0.077,2.169,3.381,1.972C213.354,415.75,211.712,416.529,211.504,416.885z"/>
					<path d="M213.464,440.951c-0.091-0.069-0.18-0.128-0.267-0.177c-0.262-0.15-0.507-0.22-0.726-0.238
						c-0.073-0.006-0.143-0.007-0.21-0.002c-0.4,0.025-0.679,0.218-0.757,0.352c-0.118,0.202-0.126,0.871,0.517,1.377h0
						c0.492,0.388,1.364,0.68,2.864,0.595c-0.108-0.219-0.216-0.413-0.324-0.595C214.188,441.637,213.815,441.217,213.464,440.951z"
						/>
					<path d="M187.504,428.885c-0.208,0.357-0.077,2.169,3.381,1.972C189.354,427.75,187.712,428.529,187.504,428.885z"/>
					<path d="M259.504,416.885c-0.209,0.357-0.078,2.169,3.379,1.972C261.353,415.75,259.711,416.529,259.504,416.885z"/>
					<path d="M262.559,442.262c-0.372-0.625-0.745-1.045-1.096-1.311c-0.091-0.069-0.18-0.128-0.267-0.177
						c-0.262-0.15-0.507-0.22-0.726-0.238c-0.073-0.006-0.143-0.007-0.21-0.002c-0.4,0.025-0.679,0.218-0.757,0.352
						c-0.118,0.202-0.126,0.871,0.516,1.377h0c0.492,0.388,1.364,0.68,2.863,0.595C262.775,442.638,262.667,442.444,262.559,442.262
						L262.559,442.262z"/>
					<path d="M235.504,428.885c-0.209,0.357-0.078,2.169,3.381,1.972C237.354,427.75,235.711,428.529,235.504,428.885z"/>
					<path d="M211.504,392.885c-0.208,0.357-0.077,2.169,3.381,1.972C213.354,391.75,211.712,392.529,211.504,392.885z"/>
					<path d="M187.504,404.885c-0.208,0.357-0.077,2.169,3.381,1.972C189.354,403.75,187.712,404.529,187.504,404.885z"/>
					<path d="M259.504,392.885c-0.209,0.357-0.078,2.169,3.379,1.972C261.353,391.75,259.711,392.529,259.504,392.885z"/>
					<path d="M235.504,404.885c-0.209,0.357-0.078,2.169,3.381,1.972C237.354,403.75,235.711,404.529,235.504,404.885z"/>
					<path d="M187.504,380.885c-0.208,0.357-0.077,2.169,3.381,1.972C189.354,379.75,187.712,380.529,187.504,380.885z"/>
					<path d="M235.504,380.885c-0.209,0.357-0.078,2.169,3.381,1.972C237.354,379.75,235.711,380.529,235.504,380.885z"/>
					<path d="M214.561,370.262c-0.18-0.302-0.361-0.56-0.539-0.771c-0.19-0.225-0.377-0.402-0.558-0.539
						c-0.453-0.344-0.87-0.439-1.203-0.418c-0.4,0.025-0.679,0.218-0.757,0.352c-0.078,0.134-0.108,0.473,0.067,0.833
						c0.058,0.12,0.139,0.243,0.249,0.361c0.058,0.063,0.126,0.124,0.201,0.183h0c0.492,0.388,1.364,0.68,2.864,0.595
						c-0.096-0.194-0.192-0.373-0.288-0.538C214.585,370.298,214.573,370.282,214.561,370.262z"/>
					<path d="M262.559,370.262c-0.18-0.302-0.36-0.56-0.538-0.771c-0.19-0.225-0.377-0.402-0.558-0.539
						c-0.453-0.344-0.869-0.439-1.202-0.418c-0.4,0.025-0.679,0.218-0.757,0.352c-0.078,0.134-0.109,0.473,0.066,0.833
						c0.058,0.12,0.139,0.243,0.249,0.361c0.058,0.063,0.126,0.124,0.201,0.183h0c0.492,0.388,1.364,0.68,2.863,0.595
						c-0.095-0.194-0.192-0.373-0.288-0.538C262.583,370.298,262.571,370.282,262.559,370.262z"/>
					<path d="M191.92,450.349c-0.412,0-1.912,1.025,0,3.913C193.833,451.374,192.333,450.349,191.92,450.349z"/>
					<path d="M239.92,450.349c-0.412,0-1.912,1.025,0,3.913C241.832,451.374,240.332,450.349,239.92,450.349z"/>
					<path d="M192.957,454.857c3.458,0.197,3.588-1.614,3.38-1.972C196.129,452.529,194.487,451.75,192.957,454.857z"/>
					<path d="M240.957,454.857c3.457,0.197,3.586-1.614,3.379-1.972C244.129,452.529,242.486,451.75,240.957,454.857z"/>
					<path d="M187.504,452.885c-0.208,0.358-0.077,2.169,3.381,1.972C189.354,451.75,187.712,452.529,187.504,452.885z"/>
					<path d="M235.504,452.885c-0.209,0.358-0.078,2.169,3.381,1.972C237.354,451.75,235.711,452.529,235.504,452.885z"/>
					<path d="M119.92,294.349c-0.412,0-1.912,1.025,0,3.913C121.833,295.374,120.333,294.349,119.92,294.349z"/>
					<path d="M143.92,282.349c-0.412,0-1.912,1.025,0,3.913C145.832,283.374,144.332,282.349,143.92,282.349z"/>
					<path d="M144.803,259.274c-0.62,0.146-1.228,0.302-1.831,0.463c-0.01,0.605,0.223,1.431,0.947,2.525
						C144.851,260.856,144.971,259.894,144.803,259.274z"/>
					<path d="M120.957,274.857c3.457,0.197,3.588-1.614,3.379-1.972C124.129,272.529,122.487,271.75,120.957,274.857z"/>
					<path d="M144.957,286.857c3.457,0.197,3.586-1.614,3.379-1.972C148.129,284.529,146.486,283.75,144.957,286.857z"/>
					<path d="M144.957,262.857c3.457,0.197,3.586-1.614,3.379-1.972C148.129,260.529,146.486,259.75,144.957,262.857z"/>
					<path d="M115.504,296.885c-0.118,0.202-0.126,0.871,0.517,1.377h0c0.492,0.388,1.364,0.68,2.864,0.595
						c-0.108-0.219-0.216-0.413-0.324-0.595C117.13,295.862,115.697,296.554,115.504,296.885z"/>
					<path d="M163.504,272.885c-0.209,0.357-0.078,2.169,3.379,1.972C165.354,271.75,163.711,272.529,163.504,272.885z"/>
					<path d="M166.559,298.262c-1.43-2.4-2.863-1.708-3.055-1.377c-0.118,0.202-0.126,0.871,0.516,1.377h0
						c0.492,0.388,1.364,0.68,2.863,0.595C166.775,298.638,166.667,298.444,166.559,298.262L166.559,298.262z"/>
					<path d="M139.504,284.885c-0.209,0.357-0.078,2.169,3.381,1.972C141.354,283.75,139.711,284.529,139.504,284.885z"/>
					<path d="M140.231,260.537c-0.174,0.056-0.352,0.108-0.524,0.165c-0.098,0.06-0.17,0.126-0.202,0.183
						c-0.209,0.357-0.078,2.169,3.381,1.972C141.913,260.884,140.897,260.48,140.231,260.537z"/>
					<path d="M71.92,342.349c-0.412,0-1.912,1.025,0,3.913C73.833,343.374,72.333,342.349,71.92,342.349z"/>
					<path d="M95.92,354.349c-0.412,0-1.912,1.025,0,3.913C97.833,355.374,96.333,354.349,95.92,354.349z"/>
					<path d="M119.92,318.349c-0.412,0-1.912,1.025,0,3.913C121.833,319.374,120.333,318.349,119.92,318.349z"/>
					<path d="M95.92,330.349c-0.412,0-1.912,1.025,0,3.913C97.833,331.374,96.333,330.349,95.92,330.349z"/>
					<path d="M143.92,330.349c-0.412,0-1.912,1.025,0,3.913C145.832,331.374,144.332,330.349,143.92,330.349z"/>
					<path d="M95.92,306.349c-0.412,0-1.912,1.025,0,3.913C97.833,307.374,96.333,306.349,95.92,306.349z"/>
					<path d="M143.92,306.349c-0.412,0-1.912,1.025,0,3.913C145.832,307.374,144.332,306.349,143.92,306.349z"/>
					<path d="M72.957,346.857c3.458,0.197,3.588-1.614,3.38-1.972C76.129,344.529,74.487,343.75,72.957,346.857z"/>
					<path d="M97.553,357.839c0.886-0.327,1.758-0.7,2.615-1.116C99.745,356.438,98.674,356.25,97.553,357.839z"/>
					<path d="M76.337,320.885c-0.057-0.098-0.226-0.226-0.468-0.298c-0.623,0.788-1.209,1.548-1.723,2.251
						C76.441,322.604,76.518,321.196,76.337,320.885z"/>
					<path d="M120.957,322.857c3.457,0.197,3.588-1.614,3.379-1.972C124.129,320.529,122.487,319.75,120.957,322.857z"/>
					<path d="M96.957,334.857c3.458,0.197,3.588-1.614,3.38-1.972C100.129,332.529,98.487,331.75,96.957,334.857z"/>
					<path d="M144.957,334.857c3.457,0.197,3.586-1.614,3.379-1.972C148.129,332.529,146.486,331.75,144.957,334.857z"/>
					<path d="M96.957,310.857c3.458,0.197,3.588-1.614,3.38-1.972C100.129,308.529,98.487,307.75,96.957,310.857z"/>
					<path d="M144.957,310.857c3.457,0.197,3.586-1.614,3.379-1.972C148.129,308.529,146.486,307.75,144.957,310.857z"/>
					<path d="M91.504,356.885c-0.189,0.325-0.089,1.849,2.532,1.974c0.253-0.054,0.506-0.109,0.758-0.172
						C93.289,355.79,91.708,356.536,91.504,356.885z"/>
					<path d="M163.504,344.885c-0.209,0.357-0.078,2.169,3.379,1.972C165.354,343.75,163.711,344.529,163.504,344.885z"/>
					<path d="M115.504,320.885c-0.208,0.357-0.077,2.169,3.381,1.972C117.354,319.75,115.712,320.529,115.504,320.885z"/>
					<path d="M91.504,332.885c-0.208,0.357-0.077,2.169,3.381,1.972C93.354,331.75,91.712,332.529,91.504,332.885z"/>
					<path d="M163.504,320.885c-0.209,0.357-0.078,2.169,3.379,1.972C165.354,319.75,163.711,320.529,163.504,320.885z"/>
					<path d="M91.504,308.885c-0.208,0.357-0.077,2.169,3.381,1.972C93.354,307.75,91.712,308.529,91.504,308.885z"/>
					<path d="M139.504,308.885c-0.209,0.357-0.078,2.169,3.381,1.972C141.354,307.75,139.711,308.529,139.504,308.885z"/>
					<path d="M123.82,298.262L123.82,298.262c0.642-0.506,0.634-1.175,0.516-1.377c-0.193-0.331-1.625-1.023-3.055,1.377l0,0
						c-0.108,0.182-0.216,0.376-0.324,0.595C122.456,298.942,123.329,298.65,123.82,298.262z"/>
					<path d="M143.92,426.349c-0.412,0-1.912,1.025,0,3.913C145.832,427.374,144.332,426.349,143.92,426.349z"/>
					<path d="M144.691,404.745c-0.283,0.46-0.563,0.93-0.839,1.406c0.024,0.038,0.043,0.073,0.068,0.111
						C144.304,405.682,144.545,405.181,144.691,404.745z"/>
					<path d="M144.957,430.857c3.457,0.197,3.586-1.614,3.379-1.972C148.129,428.529,146.486,427.75,144.957,430.857z"/>
					<path d="M144.957,406.857c3.457,0.197,3.586-1.614,3.379-1.972C148.129,404.529,146.486,403.75,144.957,406.857z"/>
					<path d="M163.504,416.885c-0.209,0.357-0.078,2.169,3.379,1.972C165.354,415.75,163.711,416.529,163.504,416.885z"/>
					<path d="M166.559,442.262c-0.372-0.625-0.745-1.045-1.096-1.311c-0.091-0.069-0.18-0.128-0.267-0.177
						c-0.262-0.15-0.507-0.22-0.726-0.238c-0.073-0.006-0.143-0.007-0.209-0.002c-0.4,0.025-0.679,0.218-0.757,0.352
						c-0.118,0.202-0.126,0.871,0.516,1.377h0c0.492,0.388,1.364,0.68,2.863,0.595C166.775,442.638,166.667,442.444,166.559,442.262
						L166.559,442.262z"/>
					<path d="M139.504,428.885c-0.209,0.357-0.078,2.169,3.381,1.972C141.354,427.75,139.711,428.529,139.504,428.885z"/>
					<path d="M163.504,392.885c-0.209,0.357-0.078,2.169,3.379,1.972C165.354,391.75,163.711,392.529,163.504,392.885z"/>
					<path d="M166.559,370.262c-0.18-0.302-0.36-0.56-0.538-0.771c-0.19-0.225-0.377-0.402-0.558-0.539
						c-0.453-0.344-0.869-0.439-1.202-0.418c-0.4,0.025-0.679,0.218-0.757,0.352c-0.078,0.134-0.109,0.473,0.066,0.833
						c0.058,0.12,0.139,0.243,0.249,0.361c0.058,0.063,0.126,0.124,0.201,0.183h0c0.492,0.388,1.364,0.68,2.863,0.595
						c-0.096-0.194-0.192-0.373-0.288-0.538C166.583,370.298,166.571,370.282,166.559,370.262z"/>
					<path d="M143.92,450.349c-0.412,0-1.912,1.025,0,3.913C145.832,451.374,144.332,450.349,143.92,450.349z"/>
					<path d="M144.957,454.857c3.457,0.197,3.586-1.614,3.379-1.972C148.129,452.529,146.486,451.75,144.957,454.857z"/>
					<path d="M139.504,452.885c-0.209,0.358-0.078,2.169,3.381,1.972C141.354,451.75,139.711,452.529,139.504,452.885z"/>
					<path d="M69.573,345.046c0.201,0.621,0.426,1.231,0.682,1.825c0.196,0.003,0.404-0.001,0.628-0.013
						C70.443,345.963,69.995,345.399,69.573,345.046z"/>
				</g>
				
					<use xlink:href="#XMLID_10_"  style="overflow:visible;fill:none;stroke:#263238;stroke-linecap:round;stroke-linejoin:round;stroke-miterlimit:10;"/>
			</g>
			<g>
				<path style="fill:#FFFFFF;stroke:#263238;stroke-linecap:round;stroke-linejoin:round;stroke-miterlimit:10;" d="
					M141.519,320.514c0,0,0.389-8.723,3.947-19.04"/>
				<path style="fill:none;stroke:#263238;stroke-linecap:round;stroke-linejoin:round;stroke-miterlimit:10;" d="M290.041,316.921
					c0,0-1.909-7.62-5.467-14.38"/>
				
					<line style="fill:none;stroke:#263238;stroke-linecap:round;stroke-linejoin:round;stroke-miterlimit:10;" x1="202.034" y1="383.302" x2="239.746" y2="371.206"/>
				<path style="fill:none;stroke:#263238;stroke-linecap:round;stroke-linejoin:round;stroke-miterlimit:10;" d="M219.111,373.341
					c0,0,11.385-4.981,27.395-7.471"/>
			</g>
		</g>
		<g>
			<defs>
				<path id="XMLID_9_" d="M208.593,297.158c29.877,5.766,41.403-22.875,45.421-45.771c-9.954-1.092-15.195-5.724-17.273-13.518
					c-2.395-8.983-2.395-26.95-2.395-26.95s-15.571,9.582-41.922-1.198c0,0,2.395,32.938-0.599,37.729
					c-2.086,3.338-4.76,6.675-12.265,8.392C179.286,266.075,181.357,291.901,208.593,297.158z"/>
			</defs>
			<use xlink:href="#XMLID_9_"  style="overflow:visible;fill:#B2B2B2;"/>
			<clipPath id="XMLID_00000005251503848790749730000011367326205598876853_">
				<use xlink:href="#XMLID_9_"  style="overflow:visible;"/>
			</clipPath>
			<path style="opacity:0.2;clip-path:url(#XMLID_00000005251503848790749730000011367326205598876853_);" d="M236.089,234.908
				c-1.743-9.46-1.744-23.989-1.744-23.989s-15.571,9.582-41.922-1.198c0,0,1,13.77,0.898,24.799
				C216.019,242.389,229.116,239.05,236.089,234.908z"/>
			
				<use xlink:href="#XMLID_9_"  style="overflow:visible;fill:none;stroke:#263238;stroke-linecap:round;stroke-linejoin:round;stroke-miterlimit:10;"/>
		</g>
		<g>
			
				<circle style="fill:#C6FF00;stroke:#263238;stroke-linecap:round;stroke-linejoin:round;stroke-miterlimit:10;" cx="253.768" cy="192.012" r="7.42"/>
			
				<circle style="fill:#C6FF00;stroke:#263238;stroke-linecap:round;stroke-linejoin:round;stroke-miterlimit:10;" cx="174.506" cy="192.012" r="7.42"/>
			<path style="fill:#B2B2B2;stroke:#263238;stroke-linecap:round;stroke-linejoin:round;stroke-miterlimit:10;" d="
				M253.093,166.716c0,0,3.71-11.468,8.095-7.42c4.385,4.047-1.349,19.563-4.385,23.273c-3.036,3.71-6.071,3.71-5.734-1.349
				C251.407,176.16,253.093,166.716,253.093,166.716z"/>
			<g>
				<g>
					<defs>
						<path id="XMLID_8_" d="M176.386,178.259c0,0,1.011,26.791,20.725,39.934c19.714,13.143,34.373,5.56,42.461-5.56
							c8.088-11.121,13.143-22.242,13.143-38.417s2.022-23.253-3.538-33.362c-5.56-10.11-24.769-15.165-24.769-15.165
							s-10.615,13.648-25.78,28.307C183.463,168.655,176.386,178.259,176.386,178.259z"/>
					</defs>
					<use xlink:href="#XMLID_8_"  style="overflow:visible;fill:#B2B2B2;"/>
					<clipPath id="XMLID_00000044873018334506385540000016802282912731544198_">
						<use xlink:href="#XMLID_8_"  style="overflow:visible;"/>
					</clipPath>
					<path style="opacity:0.2;clip-path:url(#XMLID_00000044873018334506385540000016802282912731544198_);" d="M224.408,125.688
						c0,0-10.615,13.648-25.78,28.307c-15.165,14.659-22.242,24.264-22.242,24.264s0.263,6.858,3.07,15.334
						c26.643-20.386,41.197-57.01,45.067-67.873C224.455,125.701,224.408,125.688,224.408,125.688z"/>
					
						<use xlink:href="#XMLID_8_"  style="overflow:visible;fill:none;stroke:#263238;stroke-linecap:round;stroke-linejoin:round;stroke-miterlimit:10;"/>
				</g>
				
					<line style="fill:none;stroke:#263238;stroke-linecap:round;stroke-linejoin:round;stroke-miterlimit:10;" x1="195.036" y1="175.107" x2="206.387" y2="176.172"/>
				<path style="fill:none;stroke:#263238;stroke-linecap:round;stroke-linejoin:round;stroke-miterlimit:10;" d="M229.443,174.753
					c0,0,7.449-1.419,10.996,0"/>
				<path style="fill:#263238;" d="M204.861,169.92c0,2.701-1.208,4.891-2.698,4.891c-1.49,0-2.698-2.19-2.698-4.891
					s1.208-4.891,2.698-4.891C203.653,165.03,204.861,167.219,204.861,169.92z"/>
				<path style="fill:none;stroke:#263238;stroke-linecap:round;stroke-linejoin:round;stroke-miterlimit:10;" d="M210.933,186.953
					c0,0,6.071,4.047,11.805-1.012"/>
				<path style="fill:none;stroke:#263238;stroke-linecap:round;stroke-linejoin:round;stroke-miterlimit:10;" d="M213.968,198.421
					c0,0,10.456,4.385,16.527-9.781"/>
				<path style="fill:none;stroke:#263238;stroke-width:2;stroke-linecap:round;stroke-linejoin:round;stroke-miterlimit:10;" d="
					M227.459,170.089c0,0,6.408-4.385,12.817-1.686"/>
				<path style="fill:none;stroke:#263238;stroke-width:2;stroke-linecap:round;stroke-linejoin:round;stroke-miterlimit:10;" d="
					M225.436,158.958c0,0,7.083-7.083,16.864-1.349"/>
				<path style="fill:none;stroke:#263238;stroke-width:2;stroke-linecap:round;stroke-linejoin:round;stroke-miterlimit:10;" d="
					M210.258,154.574c0,0-6.071-6.071-14.503-0.337"/>
			</g>
		</g>
		<g>
			<g>
				<defs>
					<path id="XMLID_7_" d="M73.246,324.107c0,0-10.78,11.978-10.78,24.554c0,12.577,7.187,23.955,26.95,41.922
						c19.763,17.966,38.328,31.142,46.114,35.334c7.785,4.192,15.571-1.198,15.571-1.198s12.876,12.876,14.373,9.882
						c1.497-2.994-4.492-7.486-5.689-9.283c-1.198-1.797-3.593-3.893-3.593-3.893s6.288,0.898,8.684,2.994
						c2.396,2.096,6.288,5.689,8.085,5.39c1.797-0.299,1.797-1.797-0.898-5.39c-2.695-3.593-5.989-5.989-7.785-7.187
						c-1.797-1.198-7.785-4.492-7.785-4.492s8.684-0.599,11.678,1.198c2.994,1.797,11.079,7.186,11.678,4.791
						c0.599-2.396,0.599-3.893-2.395-6.588c-2.994-2.695-8.983-5.989-12.577-6.588c-3.593-0.599-7.186-2.096-7.186-2.096
						s6.887-2.396,9.283-2.396c2.396,0,11.978,4.791,14.673,4.192c2.695-0.599,1.198-2.994-0.898-4.492
						c-2.096-1.497-11.379-5.09-15.271-5.39s-25.752,7.187-28.447,7.187c-2.695,0-9.582-9.582-16.769-22.458
						c-7.187-12.876-9.882-32.939-25.153-39.826"/>
				</defs>
				<use xlink:href="#XMLID_7_"  style="overflow:visible;fill:#C6FF00;"/>
				<clipPath id="XMLID_00000100348701593844570960000016110838849307298212_">
					<use xlink:href="#XMLID_7_"  style="overflow:visible;"/>
				</clipPath>
				<g style="opacity:0.2;clip-path:url(#XMLID_00000100348701593844570960000016110838849307298212_);">
					<path d="M71.92,346.262c1.913-2.888,0.413-3.913,0-3.913C72.332,342.349,73.832,343.374,71.92,346.262z"/>
					<path d="M71.92,366.349c0.412,0,1.912,1.025,0,3.913C73.833,367.374,72.333,366.349,71.92,366.349z"/>
					<path d="M95.92,354.349c-0.412,0-1.912,1.025,0,3.913C97.833,355.374,96.333,354.349,95.92,354.349z"/>
					<path d="M76.337,344.885c-0.208-0.357-1.85-1.135-3.38,1.972C76.415,347.054,76.545,345.242,76.337,344.885z"/>
					<path d="M76.022,370.079c0.11-0.118,0.191-0.241,0.249-0.361c0.175-0.36,0.144-0.699,0.066-0.833
						c-0.078-0.134-0.358-0.327-0.757-0.352c-0.333-0.021-0.75,0.074-1.202,0.418c-0.181,0.137-0.368,0.314-0.558,0.539
						c-0.178,0.211-0.358,0.469-0.539,0.771h2.54C75.896,370.203,75.964,370.142,76.022,370.079z"/>
					<path d="M100.337,356.885c-0.208-0.357-1.85-1.135-3.38,1.972C100.415,359.054,100.545,357.242,100.337,356.885z"/>
					<path d="M94.885,358.857c-1.531-3.107-3.173-2.328-3.381-1.972C91.296,357.242,91.427,359.054,94.885,358.857z"/>
					<path d="M71.92,342.349v3.913C73.832,343.374,72.332,342.349,71.92,342.349z"/>
					<path d="M71.92,366.349v3.913C73.832,367.374,72.332,366.349,71.92,366.349z"/>
					<path d="M119.92,414.349c-0.182,0-0.575,0.201-0.794,0.671c0.573,0.422,1.136,0.834,1.691,1.236
						C121.07,414.884,120.217,414.349,119.92,414.349z"/>
					<path d="M143.92,426.349c-0.23,0-0.801,0.322-0.925,1.111c0.621-0.047,1.222-0.127,1.796-0.237
						C144.604,426.605,144.126,426.349,143.92,426.349z"/>
					<path d="M119.92,390.349c-0.412,0-1.912,1.025,0,3.913C121.833,391.374,120.333,390.349,119.92,390.349z"/>
					<path d="M143.92,406.262c1.912-2.888,0.412-3.913,0-3.913C143.508,402.349,142.008,403.374,143.92,406.262z"/>
					<path d="M95.92,382.262c1.913-2.888,0.413-3.913,0-3.913C95.508,378.349,94.008,379.374,95.92,382.262z"/>
					<path d="M124.336,416.885c-0.155-0.267-1.115-0.77-2.231,0.3c0.548,0.392,1.086,0.775,1.614,1.147
						C124.458,417.819,124.46,417.097,124.336,416.885z"/>
					<path d="M120.957,394.857c3.457,0.197,3.588-1.614,3.379-1.972C124.129,392.529,122.487,391.75,120.957,394.857z"/>
					<path d="M144.957,406.857c3.457,0.197,3.586-1.614,3.379-1.972C148.129,404.529,146.486,403.75,144.957,406.857z"/>
					<path d="M96.957,382.857c3.458,0.197,3.588-1.614,3.38-1.972C100.129,380.529,98.487,379.75,96.957,382.857z"/>
					<path d="M166.532,418.865c-0.866-0.676-1.65-1.228-2.256-1.632c-0.187-0.125-0.427-0.276-0.693-0.439
						c-0.034,0.032-0.063,0.063-0.079,0.091C163.302,417.23,163.426,418.92,166.532,418.865z"/>
					<path d="M118.885,394.857c-1.531-3.107-3.173-2.328-3.381-1.972C115.296,393.242,115.427,395.054,118.885,394.857z"/>
					<path d="M139.504,404.885c-0.209,0.357-0.078,2.169,3.381,1.972C141.354,403.75,139.711,404.529,139.504,404.885z"/>
					<path d="M91.504,380.885c-0.208,0.357-0.077,2.169,3.381,1.972C93.354,379.75,91.712,380.529,91.504,380.885z"/>
					<path d="M75.821,370.262L75.821,370.262h-2.54c-0.012,0.02-0.024,0.036-0.036,0.057c-0.096,0.165-0.192,0.344-0.288,0.538
						C74.457,370.942,75.329,370.65,75.821,370.262z"/>
					<path d="M71.92,342.349c-0.412,0-1.912,1.025,0,3.913V342.349z"/>
					<path d="M71.92,370.262v-3.913C71.508,366.349,70.008,367.374,71.92,370.262z"/>
					<path d="M70.883,346.857c-1.529-3.107-3.172-2.328-3.379-1.972C67.295,345.242,67.426,347.054,70.883,346.857z"/>
					<path d="M70.021,369.491c-0.19-0.225-0.377-0.402-0.558-0.539c-0.025-0.019-0.048-0.031-0.073-0.048
						c0.305,0.449,0.624,0.903,0.952,1.359h0.217C70.379,369.96,70.199,369.702,70.021,369.491z"/>
					<path d="M70.595,370.319c-0.012-0.021-0.024-0.037-0.036-0.057h-0.217c0.142,0.198,0.291,0.398,0.438,0.597
						c0.036-0.002,0.066,0,0.103-0.002C70.787,370.663,70.691,370.484,70.595,370.319z"/>
				</g>
				
					<use xlink:href="#XMLID_7_"  style="overflow:visible;fill:none;stroke:#263238;stroke-linecap:round;stroke-linejoin:round;stroke-miterlimit:10;"/>
			</g>
			<path style="fill:#B2B2B2;stroke:#263238;stroke-linecap:round;stroke-linejoin:round;stroke-miterlimit:10;" d="
				M180.745,400.764c-2.096-1.497-11.379-5.09-15.271-5.39s-25.752,7.187-28.447,7.187c-2.695,0-9.582-9.582-16.769-22.458
				c-3.992-7.152-6.6-16.519-10.746-24.616c-22.004-2.958-31.436,9.867-35.796,19.117c3.984,4.793,9.147,10.023,15.7,15.98
				c19.763,17.966,38.328,31.142,46.114,35.334c7.785,4.192,15.571-1.198,15.571-1.198s12.876,12.876,14.373,9.882
				c1.497-2.994-4.492-7.486-5.689-9.283c-1.198-1.797-3.593-3.893-3.593-3.893s6.288,0.898,8.684,2.994
				c2.396,2.096,6.288,5.689,8.085,5.39c1.797-0.299,1.797-1.797-0.898-5.39c-2.695-3.593-5.989-5.989-7.785-7.187
				c-1.797-1.198-7.785-4.492-7.785-4.492s8.684-0.599,11.678,1.198c2.994,1.797,11.079,7.186,11.678,4.791
				c0.599-2.396,0.599-3.893-2.395-6.588c-2.994-2.695-8.983-5.989-12.577-6.588c-3.593-0.599-7.186-2.096-7.186-2.096
				s6.887-2.396,9.283-2.396c2.396,0,11.978,4.791,14.673,4.192C184.339,404.656,182.841,402.261,180.745,400.764z"/>
		</g>
		<g>
			<g>
				<defs>
					<path id="XMLID_6_" d="M310.756,335.353c-2.499-5.713-0.357-18.209,2.142-36.061c2.499-17.852,4.999-36.061,4.999-45.701
						c0-9.64,1.597-23.028-1.545-27.313c-3.142-4.284-14.567-15.995-15.424-21.422c-0.857-5.427,6.855-13.71,6.855-13.71
						s2.285-4.285,4.285-1.999c1.999,2.285,1.142,5.141,0,9.14c-1.143,3.999-2.285,7.141-2.285,7.141s9.997,3.142,12.568,1.428
						c2.571-1.714,2.343-11.489,2.156-16.274c-0.366-9.339-4.109-5.354-6.701-0.931c-1.242,2.12-8.569,0.857-4.284-4.57
						c4.284-5.427,8.258-10.216,12.257-5.932c3.999,4.285,6.855,12.568,6.855,12.568s2.855-13.606,5.461-21.61
						c2.606-8.004,7.259-11.168,8.934-10.61c1.675,0.558,1.489,3.35-0.186,7.259c-1.675,3.909-5.398,14.704-6.328,18.241
						c-0.931,3.536-1.117,7.631,0.744,7.259c1.861-0.372,8.376-11.726,10.237-16.566c1.861-4.84,4.653-9.307,7.818-11.354
						c3.164-2.047,5.77,0.558,4.467,3.909c-1.303,3.35-5.956,13.029-8.748,17.682c-2.792,4.653-5.212,11.54-5.212,11.54
						s5.212-5.584,9.679-9.307c4.467-3.723,9.307-4.467,10.796-3.164c1.489,1.303,0.186,1.489-3.536,4.467
						c-3.723,2.978-9.307,6.515-13.774,13.774c-4.467,7.259-6.329,11.726-8.004,17.124c-1.675,5.398-5.398,11.354-5.398,11.354
						s3.485,28.347,9.535,43.935c6.049,15.589,16.752,38.39,13.495,54.676c-3.257,16.287-9.539,24.662-18.381,27.222
						c-8.841,2.559-15.123-2.792-15.123-2.792"/>
				</defs>
				<use xlink:href="#XMLID_6_"  style="overflow:visible;fill:#C6FF00;"/>
				<clipPath id="XMLID_00000086649786706953806550000012493701621941232784_">
					<use xlink:href="#XMLID_6_"  style="overflow:visible;"/>
				</clipPath>
				<g style="opacity:0.2;clip-path:url(#XMLID_00000086649786706953806550000012493701621941232784_);">
					<path d="M359.92,174.349c0.184,0,0.583,0.206,0.801,0.689c0,0,0-0.001,0-0.001C360.503,174.555,360.104,174.349,359.92,174.349
						z"/>
					<path d="M359.92,174.349v2.339c0.273-0.557,0.54-1.107,0.801-1.65C360.503,174.555,360.104,174.349,359.92,174.349z"/>
					<path d="M359.92,322.262c1.913-2.888,0.413-3.913,0-3.913C360.332,318.349,361.832,319.374,359.92,322.262z"/>
					<path d="M363.193,322.603c-0.019-0.667-0.049-1.337-0.098-2.016c-0.62,0.167-1.392,0.754-2.138,2.269
						C361.96,322.914,362.677,322.799,363.193,322.603z"/>
					<path d="M359.92,318.349v3.913C361.832,319.374,360.332,318.349,359.92,318.349z"/>
					<path d="M311.92,198.349c-0.346,0-1.45,0.727-0.669,2.666c0.253-0.813,0.522-1.703,0.791-2.642
						C311.996,198.358,311.954,198.349,311.92,198.349z"/>
					<path d="M335.92,214.262c1.912-2.888,0.412-3.913,0-3.913C335.508,210.349,334.008,211.374,335.92,214.262z"/>
					<path d="M359.498,177.543c0.141-0.285,0.283-0.571,0.422-0.855v-2.339C359.544,174.349,358.273,175.206,359.498,177.543z"/>
					<path d="M335.92,186.349c-0.412,0-1.912,1.025,0,3.913C337.832,187.374,336.332,186.349,335.92,186.349z"/>
					<path d="M316.27,225.718c0.175-0.361,0.144-0.699,0.066-0.833c-0.078-0.134-0.357-0.327-0.757-0.352
						c-0.163-0.01-0.348,0.013-0.546,0.074c0.411,0.499,0.776,0.954,1.081,1.356C316.176,225.881,316.231,225.799,316.27,225.718z"
						/>
					<path d="M340.336,212.885c-0.207-0.356-1.85-1.135-3.379,1.972C340.414,215.054,340.543,213.242,340.336,212.885z"/>
					<path d="M339.851,190.237c-0.034-0.494-0.022-1.052,0.027-1.647c-0.636-0.195-1.807,0.005-2.92,2.267
						C338.489,190.944,339.365,190.637,339.851,190.237z"/>
					<path d="M340.37,164.968c-0.265,0.451-0.523,0.939-0.775,1.448C340.376,165.954,340.457,165.264,340.37,164.968z"/>
					<path d="M307.504,200.885c-0.203,0.349-0.074,2.081,3.156,1.977c0.028-0.085,0.058-0.176,0.086-0.264
						C309.256,199.808,307.706,200.539,307.504,200.885z"/>
					<path d="M331.504,212.885c-0.209,0.357-0.078,2.169,3.381,1.972C333.353,211.75,331.711,212.529,331.504,212.885z"/>
					<path d="M355.504,176.885c-0.208,0.356-0.077,2.152,3.337,1.973c0.007-0.014,0.014-0.027,0.021-0.041
						C357.338,175.76,355.71,176.53,355.504,176.885z"/>
					<path d="M334.885,190.857c-0.551-1.117-1.115-1.726-1.622-2.039c-0.167,0.75-0.304,1.379-0.408,1.86
						C333.352,190.828,334.012,190.906,334.885,190.857z"/>
					<path d="M332.111,190.325c-0.163-0.416-0.362-0.908-0.594-1.457c-0.004,0.006-0.01,0.012-0.013,0.017
						C331.38,189.096,331.382,189.813,332.111,190.325z"/>
					<path d="M335.92,286.262c1.912-2.888,0.412-3.913,0-3.913C335.508,282.349,334.008,283.374,335.92,286.262z"/>
					<path d="M335.92,258.349c-0.412,0-1.912,1.025,0,3.913C337.832,259.374,336.332,258.349,335.92,258.349z"/>
					<path d="M335.92,234.349c-0.412,0-1.912,1.025,0,3.913C337.832,235.374,336.332,234.349,335.92,234.349z"/>
					<path d="M316.376,272.997c-0.025,0.214-0.05,0.428-0.075,0.644C316.406,273.385,316.413,273.149,316.376,272.997z"/>
					<path d="M316.336,296.885c-0.192-0.331-1.625-1.023-3.055,1.377l0,0h2.539C316.462,297.756,316.454,297.087,316.336,296.885z"
						/>
					<path d="M336.957,286.857c3.457,0.197,3.586-1.614,3.379-1.972C340.129,284.529,338.486,283.75,336.957,286.857z"/>
					<path d="M340.336,260.885c-0.207-0.357-1.85-1.135-3.379,1.972C340.414,263.054,340.543,261.242,340.336,260.885z"/>
					<path d="M336.957,238.857c2.542,0.145,3.282-0.795,3.415-1.445c-0.03-0.204-0.058-0.397-0.087-0.592
						C339.938,236.451,338.398,235.93,336.957,238.857z"/>
					<path d="M357.407,296.914c-0.97-0.697-1.763-0.269-1.903-0.029c-0.118,0.202-0.126,0.871,0.516,1.377h1.859
						C357.723,297.812,357.566,297.362,357.407,296.914z"/>
					<path d="M331.504,284.885c-0.209,0.357-0.078,2.169,3.381,1.972C333.353,283.75,331.711,284.529,331.504,284.885z"/>
					<path d="M331.504,260.885c-0.209,0.357-0.078,2.169,3.381,1.972C333.353,259.75,331.711,260.529,331.504,260.885z"/>
					<path d="M331.504,236.885c-0.209,0.357-0.078,2.169,3.381,1.972C333.353,235.75,331.711,236.529,331.504,236.885z"/>
					<path d="M335.92,354.349c-0.389,0-1.747,0.919-0.279,3.458c0.161,0.037,0.333,0.065,0.499,0.098
						C337.697,355.293,336.314,354.349,335.92,354.349z"/>
					<path d="M311.92,322.262c1.913-2.888,0.413-3.913,0-3.913C311.508,318.349,310.008,319.374,311.92,322.262z"/>
					<path d="M359.92,318.349c-0.412,0-1.912,1.025,0,3.913V318.349z"/>
					<path d="M335.92,334.262c1.912-2.888,0.412-3.913,0-3.913C335.508,330.349,334.008,331.374,335.92,334.262z"/>
					<path d="M335.92,306.349c-0.412,0-1.912,1.025,0,3.913C337.832,307.374,336.332,306.349,335.92,306.349z"/>
					<path d="M340.336,356.885c-0.188-0.324-1.559-0.985-2.955,1.22c0.785,0.097,1.611,0.145,2.48,0.122
						C340.459,357.725,340.451,357.083,340.336,356.885z"/>
					<path d="M312.957,322.857c3.457,0.197,3.588-1.614,3.379-1.972C316.129,320.529,314.487,319.75,312.957,322.857z"/>
					<path d="M336.957,334.857c3.457,0.197,3.586-1.614,3.379-1.972C340.129,332.529,338.486,331.75,336.957,334.857z"/>
					<path d="M340.336,308.885c-0.207-0.357-1.85-1.135-3.379,1.972C340.414,311.054,340.543,309.242,340.336,308.885z"/>
					<path d="M355.504,344.885c-0.161,0.275-0.114,1.405,1.481,1.825c0.271-0.479,0.541-0.962,0.799-1.473
						C356.648,344.104,355.661,344.614,355.504,344.885z"/>
					<path d="M332.068,356.56c0.524,0.248,1.109,0.491,1.753,0.715C333.136,356.574,332.502,356.467,332.068,356.56z"/>
					<path d="M310.885,322.857c-0.297-0.603-0.598-1.056-0.892-1.397c-0.044,0.475-0.08,0.934-0.116,1.391
						C310.178,322.872,310.508,322.878,310.885,322.857z"/>
					<path d="M358.883,322.857c-1.529-3.107-3.172-2.328-3.379-1.972C355.295,321.242,355.426,323.054,358.883,322.857z"/>
					<path d="M331.504,332.885c-0.209,0.357-0.078,2.169,3.381,1.972C333.353,331.75,331.711,332.529,331.504,332.885z"/>
					<path d="M331.504,308.885c-0.209,0.357-0.078,2.169,3.381,1.972C333.353,307.75,331.711,308.529,331.504,308.885z"/>
					<path d="M313.281,298.262c-0.107,0.18-0.215,0.374-0.322,0.591c0,0.001,0,0.003-0.001,0.004
						c1.498,0.085,2.37-0.207,2.862-0.595h0H313.281z"/>
					<path d="M357.878,298.262h-1.859h0c0.396,0.312,1.047,0.559,2.066,0.6C358.017,298.661,357.947,298.462,357.878,298.262z"/>
				</g>
				
					<use xlink:href="#XMLID_6_"  style="overflow:visible;fill:none;stroke:#263238;stroke-linecap:round;stroke-linejoin:round;stroke-miterlimit:10;"/>
			</g>
			<path style="fill:#B2B2B2;stroke:#263238;stroke-linecap:round;stroke-linejoin:round;stroke-miterlimit:10;" d="
				M352.984,203.239c4.467-7.259,10.051-10.796,13.774-13.774c3.723-2.978,5.026-3.164,3.536-4.467
				c-1.489-1.303-6.329-0.558-10.796,3.164c-4.467,3.723-9.679,9.307-9.679,9.307s2.42-6.887,5.212-11.54
				c2.792-4.653,7.445-14.332,8.748-17.682c1.303-3.35-1.303-5.956-4.467-3.909c-3.164,2.047-5.956,6.515-7.818,11.354
				c-1.861,4.839-8.376,16.193-10.237,16.566s-1.675-3.723-0.744-7.259c0.931-3.536,4.653-14.332,6.328-18.241
				c1.675-3.909,1.861-6.701,0.186-7.259c-1.675-0.558-6.328,2.606-8.934,10.61c-2.606,8.004-5.461,21.61-5.461,21.61
				s-2.856-8.283-6.855-12.568c-3.999-4.285-7.972,0.505-12.257,5.932c-4.284,5.427,3.042,6.69,4.284,4.57
				c2.592-4.423,6.335-8.408,6.701,0.931c0.187,4.784,0.415,14.56-2.156,16.273c-2.571,1.714-12.568-1.428-12.568-1.428
				s1.142-3.142,2.285-7.141c1.142-3.999,1.999-6.855,0-9.14c-1.999-2.285-4.285,1.999-4.285,1.999s-7.712,8.283-6.855,13.71
				c0.857,5.427,12.282,17.138,15.424,21.422c3.142,4.285,1.545,17.673,1.545,27.313c0,9.64-2.499,27.849-4.999,45.701
				c-0.033,0.233-0.064,0.455-0.097,0.686c3.949,4.148,12.026,10.101,25.613,9.643c9.12-0.307,15.574-4.903,19.945-9.949
				c-2.902-8.631-6.537-17.047-9.243-24.02c-6.049-15.589-9.535-43.935-9.535-43.935s3.723-5.956,5.398-11.354
				C346.656,214.965,348.517,210.498,352.984,203.239z"/>
			<path style="fill:none;stroke:#263238;stroke-linecap:round;stroke-linejoin:round;stroke-miterlimit:10;" d="M325.623,230.601
				c0,0-1.675-7.073,0.745-11.54c2.42-4.467,5.956-5.77,5.956-5.77"/>
		</g>
	</g>
</g>
</svg>
